# xmcd
#
# Track frame offsets:
#	150
#	15973
#	29418
#	44587
#	62154
#	78157
#	92117
#	105391
#	119092
#	135315
#	151187
#
# Disc length: 2198 seconds
#
# Revision: 1
# Processed by: cddbd v1.5.2PL0 Copyright (c) Steve Scherf et al.
# Submitted via: audiograbber 1.83.01
#
DISCID=8108940b
DTITLE=Chris Young - Chris Young
DYEAR=2006
DGENRE=Country
TTITLE0=Beer Or Gasoline
TTITLE1=You're Gonna Love Me
TTITLE2=Drinkin' Me Lonely
TTITLE3=White Lightning Hit The Family Tree
TTITLE4=Lay It On Me
TTITLE5=Burn
TTITLE6=Small Town Big Time
TTITLE7=Flowers
TTITLE8=Center Of My World
TTITLE9=I'm Headed Your Way, Jose
TTITLE10=Who's Gonna Take Me Home
EXTD=
EXTT0=
EXTT1=
EXTT2=
EXTT3=
EXTT4=
EXTT5=
EXTT6=
EXTT7=
EXTT8=
EXTT9=
EXTT10=
PLAYORDER=
